<svg width="351" height="39" viewBox="0 0 351 39" fill="none" xmlns="http://www.w3.org/2000/svg">
<rect width="351" height="39" rx="4" fill="url(#paint0_linear_1_3725)"/>
<path d="M157.159 21.416C157.159 21.2246 157.13 21.0537 157.07 20.9033C157.016 20.7484 156.913 20.6094 156.763 20.4863C156.617 20.3587 156.41 20.2357 156.141 20.1172C155.876 19.9941 155.535 19.8665 155.115 19.7344C154.65 19.5885 154.217 19.4245 153.816 19.2422C153.415 19.0599 153.062 18.848 152.757 18.6064C152.456 18.3649 152.221 18.0869 152.053 17.7725C151.884 17.4535 151.8 17.0843 151.8 16.665C151.8 16.2549 151.886 15.8812 152.06 15.5439C152.237 15.2067 152.488 14.9173 152.812 14.6758C153.135 14.4297 153.516 14.2406 153.953 14.1084C154.395 13.9762 154.883 13.9102 155.416 13.9102C156.154 13.9102 156.792 14.0446 157.33 14.3135C157.872 14.5824 158.292 14.9469 158.588 15.4072C158.884 15.8675 159.032 16.3848 159.032 16.959H157.159C157.159 16.6491 157.093 16.3757 156.961 16.1387C156.833 15.9017 156.637 15.7148 156.373 15.5781C156.113 15.4414 155.785 15.373 155.389 15.373C155.006 15.373 154.687 15.43 154.432 15.5439C154.181 15.6579 153.992 15.8128 153.864 16.0088C153.741 16.2048 153.68 16.4235 153.68 16.665C153.68 16.8473 153.723 17.0114 153.81 17.1572C153.896 17.2985 154.026 17.4329 154.199 17.5605C154.372 17.6836 154.587 17.7998 154.842 17.9092C155.102 18.014 155.402 18.1188 155.744 18.2236C156.291 18.3877 156.77 18.57 157.18 18.7705C157.594 18.971 157.938 19.1989 158.212 19.4541C158.49 19.7093 158.697 19.9964 158.834 20.3154C158.975 20.6344 159.046 20.9967 159.046 21.4023C159.046 21.8307 158.962 22.2135 158.793 22.5508C158.624 22.888 158.383 23.1751 158.068 23.4121C157.754 23.6491 157.376 23.8291 156.934 23.9521C156.496 24.0752 156.006 24.1367 155.464 24.1367C154.981 24.1367 154.502 24.0729 154.028 23.9453C153.559 23.8132 153.133 23.6172 152.75 23.3574C152.367 23.0931 152.062 22.7604 151.834 22.3594C151.606 21.9538 151.492 21.4798 151.492 20.9375H153.379C153.379 21.252 153.429 21.5208 153.529 21.7441C153.634 21.9629 153.78 22.1429 153.967 22.2842C154.158 22.4209 154.382 22.5212 154.637 22.585C154.892 22.6488 155.168 22.6807 155.464 22.6807C155.847 22.6807 156.161 22.6283 156.407 22.5234C156.658 22.4141 156.845 22.2637 156.968 22.0723C157.095 21.8809 157.159 21.6621 157.159 21.416ZM162.272 16.6035V24H160.461V16.6035H162.272ZM160.338 14.6689C160.338 14.4001 160.429 14.1768 160.611 13.999C160.798 13.8213 161.049 13.7324 161.363 13.7324C161.678 13.7324 161.926 13.8213 162.108 13.999C162.295 14.1768 162.389 14.4001 162.389 14.6689C162.389 14.9333 162.295 15.1543 162.108 15.332C161.926 15.5098 161.678 15.5986 161.363 15.5986C161.049 15.5986 160.798 15.5098 160.611 15.332C160.429 15.1543 160.338 14.9333 160.338 14.6689ZM168.698 16.6035H170.339V23.7744C170.339 24.4443 170.193 25.0117 169.901 25.4766C169.614 25.946 169.211 26.3014 168.691 26.543C168.172 26.7891 167.568 26.9121 166.88 26.9121C166.584 26.9121 166.262 26.8711 165.916 26.7891C165.574 26.707 165.244 26.5771 164.925 26.3994C164.61 26.2262 164.348 26.0007 164.139 25.7227L164.952 24.6562C165.198 24.9434 165.476 25.1598 165.786 25.3057C166.096 25.4561 166.431 25.5312 166.791 25.5312C167.156 25.5312 167.465 25.4629 167.721 25.3262C167.98 25.194 168.179 24.998 168.315 24.7383C168.457 24.4831 168.527 24.1686 168.527 23.7949V18.292L168.698 16.6035ZM163.701 20.3906V20.2471C163.701 19.682 163.77 19.1693 163.906 18.709C164.043 18.2441 164.239 17.8454 164.494 17.5127C164.754 17.18 165.066 16.9225 165.431 16.7402C165.8 16.5579 166.215 16.4668 166.675 16.4668C167.162 16.4668 167.573 16.5557 167.905 16.7334C168.243 16.9111 168.521 17.1641 168.739 17.4922C168.963 17.8203 169.136 18.21 169.259 18.6611C169.386 19.1077 169.484 19.5999 169.553 20.1377V20.5273C169.489 21.0514 169.386 21.5322 169.245 21.9697C169.108 22.4072 168.926 22.79 168.698 23.1182C168.47 23.4417 168.188 23.6924 167.851 23.8701C167.513 24.0479 167.117 24.1367 166.661 24.1367C166.205 24.1367 165.795 24.0433 165.431 23.8564C165.066 23.6696 164.754 23.4076 164.494 23.0703C164.239 22.7331 164.043 22.3366 163.906 21.8809C163.77 21.4251 163.701 20.9284 163.701 20.3906ZM165.506 20.2471V20.3906C165.506 20.7096 165.538 21.0081 165.602 21.2861C165.665 21.5641 165.763 21.8102 165.896 22.0244C166.028 22.234 166.194 22.3981 166.395 22.5166C166.595 22.6351 166.834 22.6943 167.112 22.6943C167.486 22.6943 167.791 22.6169 168.028 22.4619C168.27 22.3024 168.452 22.0859 168.575 21.8125C168.703 21.5345 168.785 21.2223 168.821 20.876V19.8027C168.799 19.5293 168.748 19.2764 168.671 19.0439C168.598 18.8115 168.495 18.611 168.363 18.4424C168.231 18.2738 168.062 18.1416 167.857 18.0459C167.652 17.9502 167.409 17.9023 167.126 17.9023C166.853 17.9023 166.613 17.9639 166.408 18.0869C166.203 18.2054 166.035 18.3717 165.902 18.5859C165.77 18.8001 165.67 19.0485 165.602 19.3311C165.538 19.6136 165.506 19.9189 165.506 20.2471ZM173.736 18.1826V24H171.932V16.6035H173.627L173.736 18.1826ZM173.449 20.0352H172.916C172.921 19.4974 172.993 19.0098 173.135 18.5723C173.276 18.1348 173.474 17.7588 173.729 17.4443C173.989 17.1299 174.297 16.8883 174.652 16.7197C175.008 16.5511 175.404 16.4668 175.842 16.4668C176.197 16.4668 176.519 16.5169 176.806 16.6172C177.093 16.7174 177.339 16.877 177.544 17.0957C177.754 17.3145 177.913 17.6016 178.022 17.957C178.136 18.3079 178.193 18.7409 178.193 19.2559V24H176.375V19.2422C176.375 18.9049 176.325 18.6383 176.225 18.4424C176.129 18.2464 175.988 18.1074 175.801 18.0254C175.618 17.9434 175.393 17.9023 175.124 17.9023C174.846 17.9023 174.602 17.9593 174.393 18.0732C174.188 18.1826 174.014 18.3353 173.873 18.5312C173.736 18.7272 173.632 18.9528 173.559 19.208C173.486 19.4632 173.449 19.7389 173.449 20.0352ZM188.946 14.0469H190.826V20.6572C190.826 21.4183 190.662 22.0586 190.334 22.5781C190.006 23.0931 189.559 23.4827 188.994 23.7471C188.429 24.0068 187.786 24.1367 187.066 24.1367C186.337 24.1367 185.688 24.0068 185.118 23.7471C184.549 23.4827 184.102 23.0931 183.778 22.5781C183.455 22.0586 183.293 21.4183 183.293 20.6572V14.0469H185.173V20.6572C185.173 21.1221 185.25 21.5026 185.405 21.7988C185.56 22.0905 185.779 22.307 186.062 22.4482C186.344 22.5895 186.679 22.6602 187.066 22.6602C187.458 22.6602 187.793 22.5895 188.071 22.4482C188.354 22.307 188.57 22.0905 188.721 21.7988C188.871 21.5026 188.946 21.1221 188.946 20.6572V14.0469ZM194.278 18.0254V26.8438H192.467V16.6035H194.142L194.278 18.0254ZM199.029 20.2266V20.3701C199.029 20.9079 198.965 21.4069 198.838 21.8672C198.715 22.3229 198.533 22.7217 198.291 23.0635C198.049 23.4007 197.749 23.665 197.389 23.8564C197.033 24.0433 196.623 24.1367 196.158 24.1367C195.702 24.1367 195.306 24.0501 194.969 23.877C194.632 23.6992 194.347 23.4486 194.114 23.125C193.882 22.8014 193.695 22.4255 193.554 21.9971C193.417 21.5641 193.314 21.0924 193.246 20.582V20.124C193.314 19.5817 193.417 19.0895 193.554 18.6475C193.695 18.2008 193.882 17.8158 194.114 17.4922C194.347 17.1641 194.629 16.9111 194.962 16.7334C195.299 16.5557 195.693 16.4668 196.145 16.4668C196.614 16.4668 197.026 16.5557 197.382 16.7334C197.742 16.9111 198.045 17.1663 198.291 17.499C198.537 17.8317 198.722 18.2282 198.845 18.6885C198.968 19.1488 199.029 19.6615 199.029 20.2266ZM197.218 20.3701V20.2266C197.218 19.8984 197.188 19.5954 197.129 19.3174C197.07 19.0348 196.979 18.7887 196.855 18.5791C196.732 18.3649 196.573 18.1986 196.377 18.0801C196.181 17.9616 195.944 17.9023 195.666 17.9023C195.388 17.9023 195.149 17.9479 194.948 18.0391C194.748 18.1302 194.584 18.2601 194.456 18.4287C194.328 18.5973 194.228 18.7979 194.155 19.0303C194.087 19.2581 194.041 19.5111 194.019 19.7891V20.9238C194.06 21.2611 194.139 21.5641 194.258 21.833C194.376 22.1019 194.549 22.3161 194.777 22.4756C195.01 22.6351 195.311 22.7148 195.68 22.7148C195.958 22.7148 196.195 22.6533 196.391 22.5303C196.587 22.4072 196.746 22.2386 196.869 22.0244C196.992 21.8057 197.081 21.555 197.136 21.2725C197.19 20.9899 197.218 20.6891 197.218 20.3701Z" fill="#F2F0FF"/>
<defs>
<linearGradient id="paint0_linear_1_3725" x1="0" y1="0" x2="8.56098" y2="77.0488" gradientUnits="userSpaceOnUse">
<stop stop-color="#02C3BD"/>
<stop offset="1" stop-color="#4062BB"/>
</linearGradient>
</defs>
</svg>
