<svg width="171" height="42" viewBox="0 0 171 42" fill="none" xmlns="http://www.w3.org/2000/svg">
<path d="M9.03227 24.2763C4.82492 20.1155 4.78716 13.3318 8.94793 9.12445C13.1087 4.9171 19.8924 4.87934 24.0997 9.0401L31.7178 16.5738L23.879 24.5004C19.8867 28.5374 13.3777 28.5736 9.34076 24.5813L9.03227 24.2763Z" stroke="url(#paint0_linear_1_3323)" stroke-width="2"/>
<path d="M25.5139 9.03227C29.6747 4.82492 36.4584 4.78716 40.6657 8.94793C44.8731 13.1087 44.9109 19.8924 40.7501 24.0997L33.2163 31.7178L25.5983 24.1841C21.3909 20.0233 21.3532 13.2396 25.5139 9.03227Z" stroke="url(#paint1_linear_1_3323)" stroke-width="2"/>
<path d="M32.4289 17.277C36.6363 21.4378 36.674 28.2215 32.5133 32.4288C28.3525 36.6362 21.5688 36.6739 17.3614 32.5132C13.1541 28.3524 13.1163 21.5687 17.2771 17.3614L24.8108 9.74328L32.4289 17.277Z" stroke="url(#paint2_linear_1_3323)" stroke-width="2"/>
<path d="M65.21 11.9786C66.97 11.9786 68.514 12.3226 69.842 13.0106C71.186 13.6986 72.218 14.6826 72.938 15.9626C73.674 17.2266 74.042 18.6986 74.042 20.3786C74.042 22.0586 73.674 23.5306 72.938 24.7946C72.218 26.0426 71.186 27.0106 69.842 27.6986C68.514 28.3866 66.97 28.7306 65.21 28.7306H59.354V11.9786H65.21ZM65.09 25.8746C66.85 25.8746 68.21 25.3946 69.17 24.4346C70.13 23.4746 70.61 22.1226 70.61 20.3786C70.61 18.6346 70.13 17.2746 69.17 16.2986C68.21 15.3066 66.85 14.8106 65.09 14.8106H62.714V25.8746H65.09ZM78.2611 13.8506C77.6691 13.8506 77.1731 13.6666 76.7731 13.2986C76.3891 12.9146 76.1971 12.4426 76.1971 11.8826C76.1971 11.3226 76.3891 10.8586 76.7731 10.4906C77.1731 10.1066 77.6691 9.91456 78.2611 9.91456C78.8531 9.91456 79.3411 10.1066 79.7251 10.4906C80.1251 10.8586 80.3251 11.3226 80.3251 11.8826C80.3251 12.4426 80.1251 12.9146 79.7251 13.2986C79.3411 13.6666 78.8531 13.8506 78.2611 13.8506ZM79.9171 15.4346V28.7306H76.5571V15.4346H79.9171ZM88.4448 15.2186C89.4368 15.2186 90.3088 15.4186 91.0608 15.8186C91.8128 16.2026 92.4048 16.7066 92.8368 17.3306V15.4346H96.2208V28.8266C96.2208 30.0586 95.9728 31.1546 95.4768 32.1146C94.9808 33.0906 94.2368 33.8586 93.2448 34.4186C92.2528 34.9946 91.0528 35.2826 89.6448 35.2826C87.7568 35.2826 86.2048 34.8426 84.9888 33.9626C83.7888 33.0826 83.1088 31.8826 82.9488 30.3626H86.2848C86.4608 30.9706 86.8368 31.4506 87.4128 31.8026C88.0048 32.1706 88.7168 32.3546 89.5488 32.3546C90.5248 32.3546 91.3168 32.0586 91.9248 31.4666C92.5328 30.8906 92.8368 30.0106 92.8368 28.8266V26.7626C92.4048 27.3866 91.8048 27.9066 91.0368 28.3226C90.2848 28.7386 89.4208 28.9466 88.4448 28.9466C87.3248 28.9466 86.3008 28.6586 85.3728 28.0826C84.4448 27.5066 83.7088 26.6986 83.1648 25.6586C82.6368 24.6026 82.3728 23.3946 82.3728 22.0346C82.3728 20.6906 82.6368 19.4986 83.1648 18.4586C83.7088 17.4186 84.4368 16.6186 85.3488 16.0586C86.2768 15.4986 87.3088 15.2186 88.4448 15.2186ZM92.8368 22.0826C92.8368 21.2666 92.6768 20.5706 92.3568 19.9946C92.0368 19.4026 91.6048 18.9546 91.0608 18.6506C90.5168 18.3306 89.9328 18.1706 89.3088 18.1706C88.6848 18.1706 88.1088 18.3226 87.5808 18.6266C87.0528 18.9306 86.6208 19.3786 86.2848 19.9706C85.9648 20.5466 85.8048 21.2346 85.8048 22.0346C85.8048 22.8346 85.9648 23.5386 86.2848 24.1466C86.6208 24.7386 87.0528 25.1946 87.5808 25.5146C88.1248 25.8346 88.7008 25.9946 89.3088 25.9946C89.9328 25.9946 90.5168 25.8426 91.0608 25.5386C91.6048 25.2186 92.0368 24.7706 92.3568 24.1946C92.6768 23.6026 92.8368 22.8986 92.8368 22.0826ZM101.206 13.8506C100.614 13.8506 100.118 13.6666 99.7184 13.2986C99.3344 12.9146 99.1424 12.4426 99.1424 11.8826C99.1424 11.3226 99.3344 10.8586 99.7184 10.4906C100.118 10.1066 100.614 9.91456 101.206 9.91456C101.798 9.91456 102.286 10.1066 102.67 10.4906C103.07 10.8586 103.27 11.3226 103.27 11.8826C103.27 12.4426 103.07 12.9146 102.67 13.2986C102.286 13.6666 101.798 13.8506 101.206 13.8506ZM102.862 15.4346V28.7306H99.5024V15.4346H102.862ZM105.318 22.0826C105.318 20.7066 105.598 19.5066 106.158 18.4826C106.718 17.4426 107.494 16.6426 108.486 16.0826C109.478 15.5066 110.614 15.2186 111.894 15.2186C113.542 15.2186 114.902 15.6346 115.974 16.4666C117.062 17.2826 117.79 18.4346 118.158 19.9226H114.534C114.342 19.3466 114.014 18.8986 113.55 18.5786C113.102 18.2426 112.542 18.0746 111.87 18.0746C110.91 18.0746 110.15 18.4266 109.59 19.1306C109.03 19.8186 108.75 20.8026 108.75 22.0826C108.75 23.3466 109.03 24.3306 109.59 25.0346C110.15 25.7226 110.91 26.0666 111.87 26.0666C113.23 26.0666 114.118 25.4586 114.534 24.2426H118.158C117.79 25.6826 117.062 26.8266 115.974 27.6746C114.886 28.5226 113.526 28.9466 111.894 28.9466C110.614 28.9466 109.478 28.6666 108.486 28.1066C107.494 27.5306 106.718 26.7306 106.158 25.7066C105.598 24.6666 105.318 23.4586 105.318 22.0826ZM126.524 28.9466C125.244 28.9466 124.092 28.6666 123.068 28.1066C122.044 27.5306 121.236 26.7226 120.644 25.6826C120.068 24.6426 119.78 23.4426 119.78 22.0826C119.78 20.7226 120.076 19.5226 120.668 18.4826C121.276 17.4426 122.1 16.6426 123.14 16.0826C124.18 15.5066 125.34 15.2186 126.62 15.2186C127.9 15.2186 129.06 15.5066 130.1 16.0826C131.14 16.6426 131.956 17.4426 132.548 18.4826C133.156 19.5226 133.46 20.7226 133.46 22.0826C133.46 23.4426 133.148 24.6426 132.524 25.6826C131.916 26.7226 131.084 27.5306 130.028 28.1066C128.988 28.6666 127.82 28.9466 126.524 28.9466ZM126.524 26.0186C127.132 26.0186 127.7 25.8746 128.228 25.5866C128.772 25.2826 129.204 24.8346 129.524 24.2426C129.844 23.6506 130.004 22.9306 130.004 22.0826C130.004 20.8186 129.668 19.8506 128.996 19.1786C128.34 18.4906 127.532 18.1466 126.572 18.1466C125.612 18.1466 124.804 18.4906 124.148 19.1786C123.508 19.8506 123.188 20.8186 123.188 22.0826C123.188 23.3466 123.5 24.3226 124.124 25.0106C124.764 25.6826 125.564 26.0186 126.524 26.0186ZM137.628 13.8506C137.036 13.8506 136.54 13.6666 136.14 13.2986C135.756 12.9146 135.564 12.4426 135.564 11.8826C135.564 11.3226 135.756 10.8586 136.14 10.4906C136.54 10.1066 137.036 9.91456 137.628 9.91456C138.22 9.91456 138.708 10.1066 139.092 10.4906C139.492 10.8586 139.692 11.3226 139.692 11.8826C139.692 12.4426 139.492 12.9146 139.092 13.2986C138.708 13.6666 138.22 13.8506 137.628 13.8506ZM139.284 15.4346V28.7306H135.924V15.4346H139.284ZM149.972 15.2426C151.556 15.2426 152.836 15.7466 153.812 16.7546C154.788 17.7466 155.276 19.1386 155.276 20.9306V28.7306H151.916V21.3866C151.916 20.3306 151.652 19.5226 151.124 18.9626C150.596 18.3866 149.876 18.0986 148.964 18.0986C148.036 18.0986 147.3 18.3866 146.756 18.9626C146.228 19.5226 145.964 20.3306 145.964 21.3866V28.7306H142.604V15.4346H145.964V17.0906C146.412 16.5146 146.98 16.0666 147.668 15.7466C148.372 15.4106 149.14 15.2426 149.972 15.2426ZM163.559 28.9466C162.471 28.9466 161.495 28.7546 160.631 28.3706C159.767 27.9706 159.079 27.4346 158.567 26.7626C158.071 26.0906 157.799 25.3466 157.751 24.5306H161.135C161.199 25.0426 161.447 25.4666 161.879 25.8026C162.327 26.1386 162.879 26.3066 163.535 26.3066C164.175 26.3066 164.671 26.1786 165.023 25.9226C165.391 25.6666 165.575 25.3386 165.575 24.9386C165.575 24.5066 165.351 24.1866 164.903 23.9786C164.471 23.7546 163.775 23.5146 162.815 23.2586C161.823 23.0186 161.007 22.7706 160.367 22.5146C159.743 22.2586 159.199 21.8666 158.735 21.3386C158.287 20.8106 158.063 20.0986 158.063 19.2026C158.063 18.4666 158.271 17.7946 158.687 17.1866C159.119 16.5786 159.727 16.0986 160.511 15.7466C161.311 15.3946 162.247 15.2186 163.319 15.2186C164.903 15.2186 166.167 15.6186 167.111 16.4186C168.055 17.2026 168.575 18.2666 168.671 19.6106H165.455C165.407 19.0826 165.183 18.6666 164.783 18.3626C164.399 18.0426 163.879 17.8826 163.223 17.8826C162.615 17.8826 162.143 17.9946 161.807 18.2186C161.487 18.4426 161.327 18.7546 161.327 19.1546C161.327 19.6026 161.551 19.9466 161.999 20.1866C162.447 20.4106 163.143 20.6426 164.087 20.8826C165.047 21.1226 165.839 21.3706 166.463 21.6266C167.087 21.8826 167.623 22.2826 168.071 22.8266C168.535 23.3546 168.775 24.0586 168.791 24.9386C168.791 25.7066 168.575 26.3946 168.143 27.0026C167.727 27.6106 167.119 28.0906 166.319 28.4426C165.535 28.7786 164.615 28.9466 163.559 28.9466Z" fill="url(#paint3_linear_1_3323)"/>
<defs>
<linearGradient id="paint0_linear_1_3323" x1="16.6582" y1="33.2242" x2="16.4738" y2="0.092176" gradientUnits="userSpaceOnUse">
<stop stop-color="#02C3BD"/>
<stop offset="1" stop-color="#5899FF"/>
<stop offset="1" stop-color="#50BEBB"/>
</linearGradient>
<linearGradient id="paint1_linear_1_3323" x1="16.566" y1="16.6582" x2="49.698" y2="16.4738" gradientUnits="userSpaceOnUse">
<stop stop-color="#02C3BD"/>
<stop offset="1" stop-color="#5899FF"/>
<stop offset="1" stop-color="#50BEBB"/>
</linearGradient>
<linearGradient id="paint2_linear_1_3323" x1="24.803" y1="8.32909" x2="24.9874" y2="41.4611" gradientUnits="userSpaceOnUse">
<stop stop-color="#02C3BD"/>
<stop offset="1" stop-color="#5899FF"/>
<stop offset="1" stop-color="#50BEBB"/>
</linearGradient>
<linearGradient id="paint3_linear_1_3323" x1="57.698" y1="38.7306" x2="78.5225" y2="-26.6351" gradientUnits="userSpaceOnUse">
<stop stop-color="#02C3BD"/>
<stop offset="1" stop-color="#5899FF"/>
<stop offset="1" stop-color="#50BEBB"/>
</linearGradient>
</defs>
</svg>
